<svg xmlns="http://www.w3.org/2000/svg" width="600" height="400" viewBox="0 0 600 400">
  <defs>
    <linearGradient id="placeholder-grad" x1="0%" y1="0%" x2="100%" y2="100%">
      <stop offset="0%" stop-color="#1b4332" />
      <stop offset="100%" stop-color="#2d6a4f" />
    </linearGradient>
  </defs>
  <rect width="600" height="400" fill="url(#placeholder-grad)"/>
  <rect x="20" y="20" width="560" height="360" rx="15" fill="none" stroke="#52b788" stroke-width="2" stroke-dasharray="8 6" opacity="0.3"/>
  <g transform="translate(300, 180)">
    <!-- Tree/Plant Icon -->
    <path d="M-15,20 C-15,5 -30,-10 -30,-25 C-30,-40 -15,-50 0,-50 C15,-50 30,-40 30,-25 C30,-10 15,5 15,20 Z" fill="#52b788" opacity="0.8"/>
    <path d="M-10,20 C-10,8 -20,-3 -20,-15 C-20,-27 -10,-35 0,-35 C10,-35 20,-27 20,-15 C20,-3 10,8 10,20 Z" fill="#74c69d" opacity="0.9"/>
    <rect x="-3" y="20" width="6" height="20" fill="#d8f3dc" rx="2"/>
  </g>
  <text x="50%" y="260" dominant-baseline="middle" text-anchor="middle" font-family="'Outfit', 'Inter', sans-serif" font-size="22" font-weight="bold" fill="#ffffff" letter-spacing="1">
    IMAGE COMING SOON
  </text>
  <text x="50%" y="290" dominant-baseline="middle" text-anchor="middle" font-family="'Outfit', 'Inter', sans-serif" font-size="14" fill="#a7c957" opacity="0.8">
    Green Ganga Associates
  </text>
</svg>
